<svg id="Layer_1" data-name="Layer 1" xmlns="http://www.w3.org/2000/svg" viewBox="0 0 1080 549.47"><path d="M811.79,756.33H758.4c-5-20.24-10-40.62-15-61-4.91-20-9.68-40-14.86-59.84-.56-2.18-3.44-5.34-5.27-5.36-30.86-.33-61.73-.24-93.19-.24-10.45,42.38-20.78,84.32-31.15,126.41H545.53Q601,540,656.27,324.29H701Q756.28,539.84,811.79,756.33ZM716.08,587.1c-11.91-48.94-23.7-97.39-35.48-145.85l-3.94.08c-11.77,48.46-23.55,96.92-35.42,145.77Z" transform="translate(0 -265.26)"/><path d="M842.72,621.38h51.64c0,10.47-.84,20.72.15,30.78,4,41.05,28.7,61.75,69.87,59.29,31.25-1.87,51.61-16.66,60.72-44.08,10.19-30.72.22-58.23-26.26-76.74-34.61-24.18-68.78-49-102.81-74-42.38-31.13-48.41-88.52-32.12-126.67,14.85-34.76,59.08-72,115.48-65.55,69.13,7.93,93.29,68.41,88.82,118.86h-49.06c-.82-9.65-.77-19.17-2.57-28.32-7.72-39.21-50.23-59-82.33-38.66-29.63,18.77-38.68,58-18.42,86.58A145.32,145.32,0,0,0,947,494.5c27.28,20.4,55,40.33,83.88,58.4,36.79,23,52.57,55,48.51,97.81-3,31.5-14,58.83-38.35,79.8-24,20.66-53,26.12-83.39,25.89-20.42-.15-40.77-2.91-58.71-13.55-35-20.73-53.09-52.21-56.11-92.46C842.12,641,842.72,631.55,842.72,621.38Z" transform="translate(0 -265.26)"/><path d="M.66,265.26H1079.58v37.46H.66Z" transform="translate(0 -265.26)"/><path d="M.25,814.74V777.91H1079.7v36.83Z" transform="translate(0 -265.26)"/><path d="M381.43,595c-15.76,17.84-30.95,34.76-45.71,52-2,2.31-2.51,6.44-2.53,9.74-.18,30.09-.11,60.18-.11,90.28v9.13H288.91V324.24H333v262.3l1.79.65,31.83-39.45c24.34-30.15,48.58-60.38,73.16-90.33a15,15,0,0,1,9.94-4.81c15.91-.5,31.85-.22,49.53-.22-10.91,13.54-20.82,25.89-30.8,38.18-16.91,20.83-33.67,41.78-50.94,62.3-4.11,4.87-3.77,8.35-1.08,13.51q48.16,92.52,96,185.23c.6,1.16,1,2.42,2,4.95-16.78,0-32.84.21-48.87-.29-1.84,0-4-3.87-5.25-6.33q-38-74.49-75.71-149.09C383.79,599.16,382.84,597.54,381.43,595Z" transform="translate(0 -265.26)"/><path d="M.17,583.42H51.64c0,3.08-.08,6.18,0,9.27.67,21.64.38,43.36,2.36,64.88,1.92,20.89,10.71,38.46,31.4,47.73,29.82,13.37,65-1.59,75.73-32.3,6.8-19.5,7.79-39.78,7.82-60.1q.22-139,.07-278.07V324.48h50a34.31,34.31,0,0,1,.68,5c0,99.73.36,199.47-.53,299.2-.16,18.4-3.64,37.3-8.79,55C195,736.94,146.49,760.45,99,755.83c-46.58-4.53-78.28-31.9-91-77C-.78,647.68-.2,615.8.17,583.42Z" transform="translate(0 -265.26)"/></svg>